<svg width="70" height="36" viewBox="0 0 70 36" fill="none" xmlns="http://www.w3.org/2000/svg">
<g filter="url(#filter0_i_130_266)">
<path d="M19.1219 35.528C16.5299 35.528 14.1299 35.096 11.9219 34.232C9.71394 33.336 7.77794 32.104 6.11394 30.536C4.48194 28.936 3.20194 27.064 2.27394 24.92C1.37794 22.776 0.929938 20.456 0.929938 17.96C0.929938 15.432 1.37794 13.112 2.27394 11C3.20194 8.856 4.48194 7 6.11394 5.432C7.77794 3.864 9.69794 2.632 11.8739 1.736C14.0819 0.839999 16.4659 0.391999 19.0259 0.391999C21.7139 0.391999 24.1299 0.823999 26.2739 1.688C28.4179 2.52 30.3059 3.688 31.9379 5.192L26.1779 10.952C25.3779 10.056 24.3859 9.352 23.2019 8.84C22.0179 8.328 20.6259 8.072 19.0259 8.072C17.6499 8.072 16.3859 8.296 15.2339 8.744C14.1139 9.192 13.1379 9.864 12.3059 10.76C11.4739 11.624 10.8179 12.664 10.3379 13.88C9.88994 15.096 9.66594 16.456 9.66594 17.96C9.66594 19.464 9.88994 20.824 10.3379 22.04C10.8179 23.256 11.4739 24.312 12.3059 25.208C13.1379 26.072 14.1139 26.744 15.2339 27.224C16.3859 27.672 17.6499 27.896 19.0259 27.896C20.6259 27.896 22.0339 27.656 23.2499 27.176C24.4659 26.664 25.5059 25.944 26.3699 25.016L32.1299 30.776C30.4659 32.28 28.5779 33.448 26.4659 34.28C24.3859 35.112 21.9379 35.528 19.1219 35.528ZM51.0449 35.624C48.4209 35.624 46.0049 35.176 43.7969 34.28C41.5889 33.384 39.6529 32.136 37.9889 30.536C36.3569 28.936 35.0769 27.064 34.1489 24.92C33.2209 22.744 32.7569 20.408 32.7569 17.912C32.7569 15.416 33.2049 13.112 34.1009 11C35.0289 8.856 36.3089 6.984 37.9409 5.384C39.5729 3.784 41.4929 2.552 43.7009 1.688C45.9089 0.791998 48.3249 0.343997 50.9489 0.343997C53.5729 0.343997 55.9889 0.791998 58.1969 1.688C60.4049 2.552 62.3249 3.784 63.9569 5.384C65.5889 6.984 66.8529 8.856 67.7489 11C68.6769 13.144 69.1409 15.464 69.1409 17.96C69.1409 20.456 68.6769 22.776 67.7489 24.92C66.8529 27.064 65.5889 28.952 63.9569 30.584C62.3249 32.184 60.4049 33.432 58.1969 34.328C56.0209 35.192 53.6369 35.624 51.0449 35.624ZM50.9489 27.944C52.8689 27.944 54.5329 27.528 55.9409 26.696C57.3489 25.864 58.4369 24.696 59.2049 23.192C59.9729 21.688 60.3569 19.928 60.3569 17.912C60.3569 16.44 60.1329 15.096 59.6849 13.88C59.2689 12.664 58.6449 11.624 57.8129 10.76C56.9809 9.864 55.9889 9.176 54.8369 8.696C53.6849 8.216 52.3889 7.976 50.9489 7.976C49.0289 7.976 47.3649 8.392 45.9569 9.224C44.5489 10.024 43.4609 11.176 42.6929 12.68C41.9249 14.184 41.5409 15.928 41.5409 17.912C41.5409 19.448 41.7489 20.84 42.1649 22.088C42.6129 23.304 43.2529 24.36 44.0849 25.256C44.9169 26.12 45.9089 26.792 47.0609 27.272C48.2129 27.72 49.5089 27.944 50.9489 27.944Z" fill="white"/>
</g>
<path d="M11.9219 34.232L11.5459 35.1587L11.5575 35.1632L11.9219 34.232ZM6.11394 30.536L5.41387 31.2501L5.42093 31.257L5.42814 31.2638L6.11394 30.536ZM2.27394 24.92L1.35119 25.3056L1.35622 25.3172L2.27394 24.92ZM2.27394 11L1.35619 10.6028L1.35336 10.6095L2.27394 11ZM6.11394 5.432L5.4281 4.70417L5.42111 4.71089L6.11394 5.432ZM11.8739 1.736L11.4979 0.809374L11.4932 0.811321L11.8739 1.736ZM26.2739 1.688L25.9001 2.6156L25.9122 2.62027L26.2739 1.688ZM31.9379 5.192L32.645 5.8991L33.3816 5.16255L32.6156 4.45664L31.9379 5.192ZM26.1779 10.952L25.432 11.618L26.1368 12.4074L26.885 11.6591L26.1779 10.952ZM23.2019 8.84L22.805 9.75786L22.805 9.75786L23.2019 8.84ZM15.2339 8.744L14.8715 7.81195L14.8625 7.81552L15.2339 8.744ZM12.3059 10.76L13.0263 11.4536L13.0326 11.4471L13.0387 11.4405L12.3059 10.76ZM10.3379 13.88L9.40778 13.5128L9.40357 13.5235L9.39959 13.5343L10.3379 13.88ZM10.3379 22.04L9.39959 22.3857L9.40357 22.3965L9.40778 22.4072L10.3379 22.04ZM12.3059 25.208L11.5731 25.8885L11.5793 25.8951L11.5856 25.9016L12.3059 25.208ZM15.2339 27.224L14.84 28.1431L14.8556 28.1498L14.8715 28.156L15.2339 27.224ZM23.2499 27.176L23.6171 28.1062L23.6276 28.102L23.638 28.0976L23.2499 27.176ZM26.3699 25.016L27.077 24.3089L26.3442 23.5761L25.638 24.3346L26.3699 25.016ZM32.1299 30.776L32.8005 31.5179L33.5808 30.8126L32.837 30.0689L32.1299 30.776ZM26.4659 34.28L26.0994 33.3496L26.0945 33.3515L26.4659 34.28ZM19.1219 34.528C16.643 34.528 14.3678 34.1153 12.2863 33.3008L11.5575 35.1632C13.892 36.0767 16.4169 36.528 19.1219 36.528V34.528ZM12.298 33.3054C10.1997 32.4539 8.36989 31.2878 6.79974 29.8082L5.42814 31.2638C7.18599 32.9202 9.22816 34.2181 11.5459 35.1586L12.298 33.3054ZM6.81401 29.8219C5.27644 28.3145 4.06945 26.5508 3.19166 24.5228L1.35622 25.3172C2.33443 27.5772 3.68743 29.5575 5.41387 31.2501L6.81401 29.8219ZM3.19661 24.5344C2.35534 22.5214 1.92994 20.3335 1.92994 17.96H-0.0700625C-0.0700625 20.5785 0.400531 23.0306 1.35127 25.3056L3.19661 24.5344ZM1.92994 17.96C1.92994 15.5525 2.35604 13.367 3.19452 11.3905L1.35336 10.6095C0.399835 12.857 -0.0700625 15.3115 -0.0700625 17.96H1.92994ZM3.19166 11.3972C4.06867 9.37102 5.27359 7.62615 6.80676 6.1531L5.42111 4.71089C3.69029 6.37384 2.3352 8.34098 1.35622 10.6028L3.19166 11.3972ZM6.79974 6.15979C8.37231 4.67794 10.1882 3.51159 12.2547 2.66068L11.4932 0.811321C9.2077 1.7524 7.18356 3.05006 5.42814 4.70421L6.79974 6.15979ZM12.25 2.66261C14.3299 1.81859 16.5852 1.392 19.0259 1.392V-0.608001C16.3467 -0.608001 13.834 -0.13859 11.4979 0.809386L12.25 2.66261ZM19.0259 1.392C21.6064 1.392 23.8927 1.80653 25.9002 2.61552L26.6477 0.760481C24.3672 -0.158527 21.8214 -0.608001 19.0259 -0.608001V1.392ZM25.9122 2.62027C27.9438 3.40865 29.7236 4.51126 31.2603 5.92735L32.6156 4.45664C30.8882 2.86474 28.8921 1.63135 26.6357 0.755734L25.9122 2.62027ZM31.2308 4.48489L25.4708 10.2449L26.885 11.6591L32.645 5.8991L31.2308 4.48489ZM26.9239 10.286C26.0202 9.27384 24.9061 8.48743 23.5988 7.92214L22.805 9.75786C23.8658 10.2166 24.7357 10.8382 25.432 11.618L26.9239 10.286ZM23.5988 7.92214C22.2633 7.3446 20.7306 7.072 19.0259 7.072V9.072C20.5213 9.072 21.7726 9.3114 22.805 9.75786L23.5988 7.92214ZM19.0259 7.072C17.54 7.072 16.1514 7.31424 14.8715 7.81199L15.5964 9.676C16.6205 9.27775 17.7599 9.072 19.0259 9.072V7.072ZM14.8625 7.81552C13.6033 8.31922 12.5044 9.07669 11.5731 10.0795L13.0387 11.4405C13.7715 10.6513 14.6246 10.0648 15.6053 9.67247L14.8625 7.81552ZM11.5856 10.0664C10.6552 11.0326 9.9314 12.1863 9.40778 13.5128L11.2681 14.2472C11.7045 13.1417 12.2927 12.2154 13.0263 11.4536L11.5856 10.0664ZM9.39959 13.5343C8.90484 14.8772 8.66594 16.3566 8.66594 17.96H10.6659C10.6659 16.5554 10.875 15.3148 11.2763 14.2257L9.39959 13.5343ZM8.66594 17.96C8.66594 19.5634 8.90484 21.0428 9.39959 22.3857L11.2763 21.6943C10.875 20.6052 10.6659 19.3646 10.6659 17.96H8.66594ZM9.40778 22.4072C9.9303 23.7309 10.6507 24.8951 11.5731 25.8885L13.0387 24.5275C12.2972 23.7289 11.7056 22.7811 11.2681 21.6728L9.40778 22.4072ZM11.5856 25.9016C12.5118 26.8634 13.5993 27.6114 14.84 28.1431L15.6279 26.3049C14.6286 25.8766 13.7641 25.2806 13.0263 24.5144L11.5856 25.9016ZM14.8715 28.156C16.1514 28.6538 17.54 28.896 19.0259 28.896V26.896C17.7599 26.896 16.6205 26.6902 15.5964 26.292L14.8715 28.156ZM19.0259 28.896C20.7243 28.896 22.2612 28.6414 23.6171 28.1062L22.8828 26.2458C21.8066 26.6706 20.5275 26.896 19.0259 26.896V28.896ZM23.638 28.0976C24.9789 27.533 26.1376 26.7331 27.1018 25.6974L25.638 24.3346C24.8743 25.1549 23.953 25.795 22.8619 26.2544L23.638 28.0976ZM25.6628 25.7231L31.4228 31.4831L32.837 30.0689L27.077 24.3089L25.6628 25.7231ZM31.4594 30.0341C29.8857 31.4565 28.1009 32.5611 26.0994 33.3496L26.8325 35.2104C29.0549 34.3349 31.0462 33.1035 32.8005 31.5179L31.4594 30.0341ZM26.0945 33.3515C24.1587 34.1258 21.8422 34.528 19.1219 34.528V36.528C22.0337 36.528 24.6131 36.0982 26.8373 35.2085L26.0945 33.3515ZM43.7969 34.28L43.4209 35.2066L43.4209 35.2066L43.7969 34.28ZM37.9889 30.536L37.2888 31.2501L37.2958 31.2568L37.9889 30.536ZM34.1489 24.92L33.2291 25.3123L33.2312 25.3172L34.1489 24.92ZM34.1009 11L33.1832 10.6028L33.1804 10.6095L34.1009 11ZM43.7009 1.688L44.0654 2.61932L44.077 2.61461L43.7009 1.688ZM58.1969 1.688L57.8209 2.61468L57.8325 2.61924L58.1969 1.688ZM67.7489 11L66.8262 11.3856L66.8312 11.3972L67.7489 11ZM67.7489 24.92L66.8311 24.5227L66.8263 24.5344L67.7489 24.92ZM63.9569 30.584L64.657 31.2981L64.664 31.2911L63.9569 30.584ZM58.1969 34.328L58.566 35.2574L58.573 35.2546L58.1969 34.328ZM55.9409 26.696L56.4497 27.5569L56.4497 27.5569L55.9409 26.696ZM59.2049 23.192L58.3143 22.7372L58.3143 22.7372L59.2049 23.192ZM59.6849 13.88L58.7388 14.2037L58.7426 14.2147L58.7466 14.2257L59.6849 13.88ZM57.8129 10.76L57.0801 11.4405L57.0863 11.4471L57.0926 11.4536L57.8129 10.76ZM45.9569 9.224L46.4509 10.0935L46.4583 10.0893L46.4657 10.0849L45.9569 9.224ZM42.6929 12.68L41.8023 12.2252L41.8023 12.2252L42.6929 12.68ZM42.1649 22.088L41.2163 22.4042L41.2212 22.419L41.2266 22.4337L42.1649 22.088ZM44.0849 25.256L43.3521 25.9365L43.3583 25.9431L43.3646 25.9496L44.0849 25.256ZM47.0609 27.272L46.6763 28.1951L46.6874 28.1997L46.6985 28.204L47.0609 27.272ZM51.0449 34.624C48.5368 34.624 46.25 34.1962 44.173 33.3534L43.4209 35.2066C45.7599 36.1558 48.3051 36.624 51.0449 36.624V34.624ZM44.173 33.3534C42.0789 32.5036 40.2514 31.3242 38.682 29.8152L37.2958 31.2568C39.0544 32.9478 41.099 34.2644 43.4209 35.2066L44.173 33.3534ZM38.689 29.8219C37.1514 28.3145 35.9444 26.5508 35.0667 24.5228L33.2312 25.3172C34.2094 27.5772 35.5624 29.5575 37.2889 31.2501L38.689 29.8219ZM35.0688 24.5277C34.1966 22.4825 33.7569 20.2807 33.7569 17.912H31.7569C31.7569 20.5353 32.2453 23.0055 33.2291 25.3123L35.0688 24.5277ZM33.7569 17.912C33.7569 15.5383 34.1824 13.3685 35.0215 11.3905L33.1804 10.6095C32.2275 12.8555 31.7569 15.2937 31.7569 17.912H33.7569ZM35.0187 11.3972C35.8964 9.36922 37.1034 7.60549 38.641 6.09807L37.2409 4.66993C35.5144 6.36251 34.1614 8.34277 33.1832 10.6028L35.0187 11.3972ZM38.641 6.09807C40.1733 4.59586 41.9779 3.43606 44.0653 2.61924L43.3365 0.756757C41.008 1.66794 38.9726 2.97214 37.2409 4.66993L38.641 6.09807ZM44.077 2.61461C46.154 1.77176 48.4408 1.344 50.9489 1.344V-0.656003C48.2091 -0.656003 45.6639 -0.187768 43.3249 0.761387L44.077 2.61461ZM50.9489 1.344C53.4571 1.344 55.7439 1.77176 57.8209 2.61461L58.573 0.761387C56.234 -0.187768 53.6888 -0.656003 50.9489 -0.656003V1.344ZM57.8325 2.61924C59.92 3.43606 61.7246 4.59586 63.2569 6.09807L64.657 4.66993C62.9253 2.97214 60.8899 1.66794 58.5613 0.756757L57.8325 2.61924ZM63.2569 6.09807C64.7918 7.60295 65.9809 9.36274 66.8263 11.3856L68.6716 10.6144C67.725 8.34926 66.386 6.36504 64.657 4.66993L63.2569 6.09807ZM66.8312 11.3972C67.7013 13.4074 68.1409 15.5912 68.1409 17.96H70.1409C70.1409 15.3368 69.6526 12.8806 68.6667 10.6028L66.8312 11.3972ZM68.1409 17.96C68.1409 20.3288 67.7013 22.5126 66.8312 24.5228L68.6667 25.3172C69.6526 23.0394 70.1409 20.5832 70.1409 17.96H68.1409ZM66.8263 24.5344C65.9801 26.5591 64.7891 28.3376 63.2498 29.8769L64.664 31.2911C66.3888 29.5664 67.7257 27.5689 68.6716 25.3056L66.8263 24.5344ZM63.2569 29.8699C61.722 31.3747 59.9133 32.5523 57.8209 33.4014L58.573 35.2546C60.8966 34.3117 62.9279 32.9933 64.657 31.2981L63.2569 29.8699ZM57.8279 33.3986C55.7813 34.2112 53.5241 34.624 51.0449 34.624V36.624C53.7498 36.624 56.2606 36.1728 58.566 35.2574L57.8279 33.3986ZM50.9489 28.944C53.0165 28.944 54.8626 28.4947 56.4497 27.5569L55.4322 25.8351C54.2033 26.5613 52.7214 26.944 50.9489 26.944V28.944ZM56.4497 27.5569C58.0264 26.6252 59.2443 25.3138 60.0955 23.6468L58.3143 22.7372C57.6296 24.0782 56.6715 25.1028 55.4322 25.8351L56.4497 27.5569ZM60.0955 23.6468C60.9481 21.9772 61.3569 20.0557 61.3569 17.912H59.3569C59.3569 19.8003 58.9978 21.3988 58.3143 22.7372L60.0955 23.6468ZM61.3569 17.912C61.3569 16.3379 61.1172 14.875 60.6233 13.5343L58.7466 14.2257C59.1487 15.317 59.3569 16.5421 59.3569 17.912H61.3569ZM60.6311 13.5563C60.1712 12.212 59.4738 11.0431 58.5333 10.0664L57.0926 11.4536C57.8161 12.2049 58.3667 13.116 58.7388 14.2037L60.6311 13.5563ZM58.5457 10.0795C57.6143 9.07648 56.5028 8.30678 55.2216 7.77292L54.4523 9.61908C55.4751 10.0452 56.3476 10.6515 57.0801 11.4405L58.5457 10.0795ZM55.2216 7.77292C53.9304 7.23494 52.5008 6.976 50.9489 6.976V8.976C52.277 8.976 53.4395 9.19706 54.4523 9.61908L55.2216 7.77292ZM50.9489 6.976C48.8814 6.976 47.0353 7.42526 45.4482 8.36307L46.4657 10.0849C47.6946 9.35874 49.1765 8.976 50.9489 8.976V6.976ZM45.4629 8.35454C43.8775 9.25533 42.6552 10.5551 41.8023 12.2252L43.5835 13.1348C44.2667 11.7969 45.2203 10.7927 46.4509 10.0935L45.4629 8.35454ZM41.8023 12.2252C40.9509 13.8927 40.5409 15.7975 40.5409 17.912H42.5409C42.5409 16.0585 42.899 14.4753 43.5835 13.1348L41.8023 12.2252ZM40.5409 17.912C40.5409 19.5379 40.7611 21.0388 41.2163 22.4042L43.1136 21.7718C42.7368 20.6412 42.5409 19.3581 42.5409 17.912H40.5409ZM41.2266 22.4337C41.7175 23.7662 42.4249 24.9378 43.3521 25.9365L44.8177 24.5755C44.081 23.7822 43.5083 22.8418 43.1033 21.7423L41.2266 22.4337ZM43.3646 25.9496C44.2955 26.9163 45.4031 27.6646 46.6763 28.1951L47.4456 26.3489C46.4148 25.9194 45.5384 25.3237 44.8053 24.5624L43.3646 25.9496ZM46.6985 28.204C47.9834 28.7037 49.4051 28.944 50.9489 28.944V26.944C49.6128 26.944 48.4424 26.7363 47.4234 26.34L46.6985 28.204Z" fill="black"/>
<defs>
<filter id="filter0_i_130_266" x="0.929932" y="0.343994" width="68.211" height="39.28" filterUnits="userSpaceOnUse" color-interpolation-filters="sRGB">
<feFlood flood-opacity="0" result="BackgroundImageFix"/>
<feBlend mode="normal" in="SourceGraphic" in2="BackgroundImageFix" result="shape"/>
<feColorMatrix in="SourceAlpha" type="matrix" values="0 0 0 0 0 0 0 0 0 0 0 0 0 0 0 0 0 0 127 0" result="hardAlpha"/>
<feOffset dy="4"/>
<feGaussianBlur stdDeviation="2"/>
<feComposite in2="hardAlpha" operator="arithmetic" k2="-1" k3="1"/>
<feColorMatrix type="matrix" values="0 0 0 0 0.317647 0 0 0 0 0.321569 0 0 0 0 0.321569 0 0 0 1 0"/>
<feBlend mode="normal" in2="shape" result="effect1_innerShadow_130_266"/>
</filter>
</defs>
</svg>
